<svg xmlns="http://www.w3.org/2000/svg" xmlns:xlink="http://www.w3.org/1999/xlink" width="1600" zoomAndPan="magnify" viewBox="0 0 1200 434.999989" height="580" preserveAspectRatio="xMidYMid meet" version="1.0"><defs><filter x="0%" y="0%" width="100%" height="100%" id="3ac0cd9ead"><feColorMatrix values="0 0 0 0 1 0 0 0 0 1 0 0 0 0 1 0 0 0 1 0" color-interpolation-filters="sRGB"/></filter><mask id="a656eb4f90"><g filter="url(#3ac0cd9ead)"><rect x="-120" width="1440" fill="#000000" y="-43.499999" height="521.999987" fill-opacity="0.7176"/></g></mask><clipPath id="ab526107c2"><path d="M 0 0 L 143 0 L 143 68 L 0 68 Z M 0 0 " clip-rule="nonzero"/></clipPath><clipPath id="30558990ac"><path d="M 0 0 L 151 0 L 151 75 L 0 75 Z M 0 0 " clip-rule="nonzero"/></clipPath><clipPath id="564f2ca8a2"><path d="M 0 0 L 158 0 L 158 81 L 0 81 Z M 0 0 " clip-rule="nonzero"/></clipPath><clipPath id="8daf3895d8"><path d="M 0 0 L 166 0 L 166 88 L 0 88 Z M 0 0 " clip-rule="nonzero"/></clipPath><clipPath id="f69885fd3d"><path d="M 0 0 L 173 0 L 173 95 L 0 95 Z M 0 0 " clip-rule="nonzero"/></clipPath><clipPath id="e58eabf33c"><path d="M 0 0 L 181 0 L 181 102 L 0 102 Z M 0 0 " clip-rule="nonzero"/></clipPath><clipPath id="783ff4d87a"><path d="M 0 0 L 188 0 L 188 109 L 0 109 Z M 0 0 " clip-rule="nonzero"/></clipPath><clipPath id="939a672343"><path d="M 0 0 L 196 0 L 196 116 L 0 116 Z M 0 0 " clip-rule="nonzero"/></clipPath><clipPath id="b99da92f67"><path d="M 0 0 L 203 0 L 203 122 L 0 122 Z M 0 0 " clip-rule="nonzero"/></clipPath><clipPath id="d3120c7772"><path d="M 0 0 L 211 0 L 211 129 L 0 129 Z M 0 0 " clip-rule="nonzero"/></clipPath><clipPath id="e15c95e62c"><path d="M 0 0 L 218 0 L 218 136 L 0 136 Z M 0 0 " clip-rule="nonzero"/></clipPath><clipPath id="b06f6d2a47"><path d="M 0 0 L 225 0 L 225 143 L 0 143 Z M 0 0 " clip-rule="nonzero"/></clipPath><clipPath id="1248bf5bf0"><path d="M 0 0 L 233 0 L 233 150 L 0 150 Z M 0 0 " clip-rule="nonzero"/></clipPath><clipPath id="e7e71f78c4"><path d="M 0 0 L 240 0 L 240 157 L 0 157 Z M 0 0 " clip-rule="nonzero"/></clipPath><clipPath id="9d6b1036dc"><path d="M 0 0 L 248 0 L 248 163 L 0 163 Z M 0 0 " clip-rule="nonzero"/></clipPath><clipPath id="bd52d13350"><path d="M 0 0 L 255 0 L 255 170 L 0 170 Z M 0 0 " clip-rule="nonzero"/></clipPath><clipPath id="72ce3afb60"><path d="M 0 0 L 262.558594 0 L 262.558594 176.878906 L 0 176.878906 Z M 0 0 " clip-rule="nonzero"/></clipPath><clipPath id="a6aa5bff98"><rect x="0" width="263" y="0" height="177"/></clipPath><mask id="c7de661037"><g filter="url(#3ac0cd9ead)"><rect x="-120" width="1440" fill="#000000" y="-43.499999" height="521.999987" fill-opacity="0.7176"/></g></mask><clipPath id="065e0b78eb"><path d="M 0.621094 1 L 179 1 L 179 119 L 0.621094 119 Z M 0.621094 1 " clip-rule="nonzero"/></clipPath><clipPath id="6ad8677220"><path d="M 1 3 L 187 3 L 187 123 L 1 123 Z M 1 3 " clip-rule="nonzero"/></clipPath><clipPath id="67e0ffe5cb"><path d="M 1 5 L 195 5 L 195 123 L 1 123 Z M 1 5 " clip-rule="nonzero"/></clipPath><clipPath id="c54e888e7f"><path d="M 2 7 L 198 7 L 198 123 L 2 123 Z M 2 7 " clip-rule="nonzero"/></clipPath><clipPath id="d1b3ff5fbf"><path d="M 2 10 L 198 10 L 198 123 L 2 123 Z M 2 10 " clip-rule="nonzero"/></clipPath><clipPath id="31bba1c628"><path d="M 3 12 L 198 12 L 198 123 L 3 123 Z M 3 12 " clip-rule="nonzero"/></clipPath><clipPath id="25746796a6"><path d="M 3 14 L 198 14 L 198 123 L 3 123 Z M 3 14 " clip-rule="nonzero"/></clipPath><clipPath id="6d05479a23"><path d="M 4 17 L 198 17 L 198 123 L 4 123 Z M 4 17 " clip-rule="nonzero"/></clipPath><clipPath id="98e3ce8c22"><path d="M 4 19 L 198 19 L 198 123 L 4 123 Z M 4 19 " clip-rule="nonzero"/></clipPath><clipPath id="106f15578b"><path d="M 5 21 L 198 21 L 198 123 L 5 123 Z M 5 21 " clip-rule="nonzero"/></clipPath><clipPath id="46f5c55238"><path d="M 5 24 L 198 24 L 198 123 L 5 123 Z M 5 24 " clip-rule="nonzero"/></clipPath><clipPath id="e7d5d66310"><path d="M 6 26 L 198 26 L 198 123 L 6 123 Z M 6 26 " clip-rule="nonzero"/></clipPath><clipPath id="6c86f3a072"><path d="M 6 28 L 198 28 L 198 123 L 6 123 Z M 6 28 " clip-rule="nonzero"/></clipPath><clipPath id="19090965e5"><path d="M 7 30 L 198 30 L 198 123 L 7 123 Z M 7 30 " clip-rule="nonzero"/></clipPath><clipPath id="a54f583878"><path d="M 7 33 L 198 33 L 198 123 L 7 123 Z M 7 33 " clip-rule="nonzero"/></clipPath><clipPath id="7e9111ad10"><path d="M 7 35 L 198 35 L 198 123 L 7 123 Z M 7 35 " clip-rule="nonzero"/></clipPath><clipPath id="549c318b7e"><path d="M 8 37 L 198 37 L 198 123 L 8 123 Z M 8 37 " clip-rule="nonzero"/></clipPath><clipPath id="77fdac5c51"><rect x="0" width="198" y="0" height="123"/></clipPath></defs><rect x="-120" width="1440" fill="#ffffff" y="-43.499999" height="521.999987" fill-opacity="1"/><rect x="-120" width="1440" fill="#ffffff" y="-43.499999" height="521.999987" fill-opacity="1"/><rect x="-120" width="1440" fill="#161526" y="-43.499999" height="521.999987" fill-opacity="1"/><g mask="url(#a656eb4f90)"><g transform="matrix(1, 0, 0, 1, 0, 0)"><g clip-path="url(#a6aa5bff98)"><g clip-path="url(#ab526107c2)"><path fill="#2bb1ae" d="M 142.070312 -39.613281 C 139.332031 -26.652344 132.375 -15.128906 122.375 -6.46875 C 111.585938 2.878906 97.789062 7.417969 84.492188 11.914062 C 69.757812 16.882812 55.003906 21.796875 40.289062 26.820312 C 29.257812 30.585938 18.234375 34.640625 7.996094 40.265625 C -2.847656 46.21875 -14.429688 54.714844 -19.917969 66.15625 C -20.003906 66.328125 -20.019531 66.503906 -19.964844 66.6875 C -19.90625 66.867188 -19.796875 67.007812 -19.632812 67.105469 C -19.46875 67.203125 -19.292969 67.230469 -19.105469 67.1875 C -18.917969 67.144531 -18.773438 67.046875 -18.664062 66.886719 C -15.117188 61.78125 -11.578125 56.96875 -6.929688 52.789062 C -2.523438 48.820312 2.40625 45.464844 7.558594 42.539062 C 18.253906 36.46875 29.875 32.234375 41.488281 28.285156 C 56.277344 23.25 71.113281 18.300781 85.921875 13.300781 C 98.703125 8.988281 111.828125 4.507812 122.394531 -4.167969 C 133.097656 -12.953125 140.246094 -25.886719 142.695312 -39.441406 C 142.769531 -39.847656 142.148438 -40.023438 142.074219 -39.613281 Z M 142.070312 -39.613281 " fill-opacity="1" fill-rule="nonzero"/></g><g clip-path="url(#30558990ac)"><path fill="#2bb1ae" d="M 150.167969 -37.324219 C 150.261719 -37.734375 149.636719 -37.933594 149.535156 -37.515625 C 146.164062 -24.269531 138.789062 -12.394531 128.484375 -3.28125 C 118.804688 5.28125 106.917969 10.371094 94.972656 14.875 C 93.199219 15.542969 91.429688 16.199219 89.660156 16.847656 C 79.285156 20.679688 68.851562 24.40625 58.363281 28.03125 C 53.546875 29.699219 48.722656 31.351562 43.890625 32.980469 C 34.351562 36.214844 24.796875 39.574219 15.683594 43.863281 C 13.808594 44.738281 11.957031 45.660156 10.125 46.632812 C 5 49.292969 0.136719 52.371094 -4.460938 55.867188 C -10.589844 60.605469 -16.039062 66.242188 -19.464844 72.945312 C -19.566406 73.121094 -19.59375 73.308594 -19.542969 73.503906 C -19.496094 73.703125 -19.382812 73.855469 -19.210938 73.960938 C -19.039062 74.066406 -18.851562 74.097656 -18.652344 74.054688 C -18.453125 74.011719 -18.300781 73.902344 -18.1875 73.734375 C -14.335938 68.476562 -10.457031 63.546875 -5.480469 59.292969 C -0.808594 55.28125 4.378906 51.90625 9.789062 48.960938 C 10.65625 48.488281 11.53125 48.027344 12.414062 47.574219 C 22.894531 42.195312 34.097656 38.285156 45.238281 34.503906 C 48.652344 33.347656 52.0625 32.183594 55.472656 31.011719 C 67.449219 26.890625 79.355469 22.644531 91.191406 18.277344 C 103.875 13.585938 116.777344 8.625 127.429688 0.0234375 C 127.792969 -0.273438 128.160156 -0.574219 128.523438 -0.878906 C 139.539062 -10.160156 147.101562 -23.414062 150.167969 -37.324219 Z M 150.167969 -37.324219 " fill-opacity="1" fill-rule="nonzero"/></g><g clip-path="url(#564f2ca8a2)"><path fill="#2bb1ae" d="M 157.644531 -35.207031 C 157.75 -35.625 157.113281 -35.839844 156.996094 -35.417969 C 154.960938 -28.613281 152.039062 -22.210938 148.234375 -16.210938 C 144.429688 -10.210938 139.882812 -4.835938 134.589844 -0.09375 C 124.625 8.894531 112.527344 14.574219 100.273438 19.589844 C 98.449219 20.335938 96.632812 21.0625 94.824219 21.777344 C 84.171875 26.03125 73.40625 30.09375 62.527344 33.957031 C 57.535156 35.730469 52.515625 37.445312 47.492188 39.136719 C 37.566406 42.484375 27.601562 45.878906 18.066406 50.203125 C 16.109375 51.09375 14.171875 52.023438 12.257812 52.996094 C 6.886719 55.675781 1.785156 58.789062 -3.054688 62.335938 C -9.496094 67.140625 -15.28125 72.863281 -19.007812 79.734375 C -19.105469 79.914062 -19.128906 80.101562 -19.082031 80.296875 C -19.03125 80.496094 -18.921875 80.648438 -18.75 80.761719 C -18.578125 80.871094 -18.394531 80.910156 -18.191406 80.871094 C -17.992188 80.835938 -17.832031 80.738281 -17.707031 80.574219 C -13.566406 75.160156 -9.332031 70.121094 -4.015625 65.800781 C 0.914062 61.746094 6.367188 58.34375 12.03125 55.382812 C 12.945312 54.90625 13.859375 54.441406 14.769531 53.992188 C 25.726562 48.582031 37.398438 44.648438 49.003906 40.734375 C 52.550781 39.539062 56.09375 38.324219 59.628906 37.089844 C 72.058594 32.738281 84.339844 28.128906 96.476562 23.269531 C 109.488281 18.070312 122.605469 12.457031 133.535156 3.375 C 133.914062 3.066406 134.285156 2.75 134.65625 2.425781 C 145.957031 -7.355469 153.988281 -20.929688 157.644531 -35.207031 Z M 157.644531 -35.207031 " fill-opacity="1" fill-rule="nonzero"/></g><g clip-path="url(#8daf3895d8)"><path fill="#2bb1ae" d="M 165.121094 -33.074219 C 165.246094 -33.503906 164.59375 -33.730469 164.457031 -33.304688 C 162.097656 -26.335938 158.90625 -19.769531 154.882812 -13.605469 C 150.859375 -7.441406 146.132812 -1.875 140.699219 3.09375 C 130.449219 12.507812 118.140625 18.773438 105.578125 24.308594 C 103.71875 25.125 101.855469 25.933594 99.988281 26.726562 C 89.058594 31.394531 77.957031 35.78125 66.6875 39.890625 C 61.511719 41.765625 56.304688 43.550781 51.078125 45.300781 C 40.765625 48.757812 30.390625 52.191406 20.441406 56.550781 C 18.40625 57.445312 16.386719 58.386719 14.378906 59.367188 C 8.769531 62.070312 3.425781 65.21875 -1.652344 68.816406 C -8.402344 73.671875 -14.546875 79.46875 -18.550781 86.523438 C -18.671875 86.707031 -18.714844 86.90625 -18.671875 87.121094 C -18.628906 87.335938 -18.519531 87.507812 -18.335938 87.628906 C -18.152344 87.753906 -17.957031 87.796875 -17.738281 87.753906 C -17.523438 87.710938 -17.351562 87.601562 -17.230469 87.417969 C -12.785156 81.851562 -8.191406 76.707031 -2.570312 72.292969 C 2.636719 68.210938 8.335938 64.773438 14.253906 61.796875 C 15.207031 61.320312 16.164062 60.851562 17.125 60.394531 C 28.574219 54.957031 40.707031 50.996094 52.742188 46.949219 C 56.425781 45.710938 60.097656 44.445312 63.761719 43.152344 C 76.640625 38.570312 89.300781 33.597656 101.746094 28.238281 C 115.082031 22.507812 128.421875 16.273438 139.632812 6.710938 C 140.019531 6.382812 140.402344 6.050781 140.78125 5.714844 C 152.386719 -4.574219 160.851562 -18.453125 165.121094 -33.074219 Z M 165.121094 -33.074219 " fill-opacity="1" fill-rule="nonzero"/></g><g clip-path="url(#f69885fd3d)"><path fill="#2bb1ae" d="M 172.59375 -30.972656 C 172.621094 -31.0625 172.617188 -31.152344 172.574219 -31.238281 C 172.53125 -31.324219 172.464844 -31.382812 172.375 -31.417969 C 172.285156 -31.449219 172.195312 -31.449219 172.109375 -31.410156 C 172.019531 -31.375 171.957031 -31.3125 171.917969 -31.222656 C 169.238281 -24.089844 165.777344 -17.355469 161.535156 -11.019531 C 157.296875 -4.6875 152.386719 1.082031 146.808594 6.28125 C 136.269531 16.128906 123.75 22.96875 110.886719 29.023438 C 108.980469 29.917969 107.074219 30.796875 105.160156 31.660156 C 93.949219 36.75 82.519531 41.511719 70.867188 45.816406 C 65.507812 47.796875 60.113281 49.644531 54.707031 51.460938 C 44.003906 55.015625 33.222656 58.496094 22.855469 62.894531 C 20.726562 63.804688 18.617188 64.753906 16.527344 65.734375 C 10.675781 68.457031 5.085938 71.640625 -0.238281 75.289062 C -7.296875 80.210938 -13.78125 86.082031 -18.082031 93.3125 C -18.210938 93.5 -18.257812 93.703125 -18.21875 93.925781 C -18.179688 94.148438 -18.070312 94.324219 -17.882812 94.457031 C -17.699219 94.589844 -17.496094 94.632812 -17.269531 94.597656 C -17.046875 94.558594 -16.871094 94.445312 -16.738281 94.261719 C -11.988281 88.542969 -7.066406 83.285156 -1.101562 78.796875 C 4.375 74.675781 10.324219 71.207031 16.5 68.210938 C 17.488281 67.730469 18.488281 67.261719 19.488281 66.804688 C 31.425781 61.332031 44.03125 57.351562 56.507812 53.167969 C 60.324219 51.894531 64.125 50.574219 67.917969 49.214844 C 81.246094 44.402344 94.28125 39.039062 107.015625 33.21875 C 120.679688 26.964844 134.242188 20.085938 145.726562 10.054688 C 146.121094 9.710938 146.515625 9.359375 146.90625 9.007812 C 158.816406 -1.777344 167.714844 -15.972656 172.59375 -30.972656 Z M 172.59375 -30.972656 " fill-opacity="1" fill-rule="nonzero"/></g><g clip-path="url(#e58eabf33c)"><path fill="#2bb1ae" d="M 180.074219 -28.855469 C 180.109375 -28.949219 180.109375 -29.042969 180.070312 -29.136719 C 180.027344 -29.230469 179.960938 -29.296875 179.863281 -29.332031 C 179.769531 -29.371094 179.675781 -29.371094 179.582031 -29.328125 C 179.488281 -29.289062 179.421875 -29.222656 179.382812 -29.128906 C 176.382812 -21.835938 172.65625 -14.9375 168.195312 -8.433594 C 163.734375 -1.929688 158.640625 4.035156 152.917969 9.464844 C 142.09375 19.734375 129.367188 27.171875 116.191406 33.734375 C 114.242188 34.707031 112.285156 35.660156 110.324219 36.601562 C 98.824219 42.109375 87.078125 47.210938 75.03125 51.746094 C 69.496094 53.828125 63.910156 55.757812 58.300781 57.617188 C 47.210938 61.296875 36.019531 64.800781 25.234375 69.234375 C 23.019531 70.148438 20.820312 71.101562 18.644531 72.097656 C 12.550781 74.84375 6.722656 78.0625 1.15625 81.757812 C -6.214844 86.730469 -13.039062 92.703125 -17.632812 100.089844 C -17.773438 100.277344 -17.824219 100.488281 -17.789062 100.722656 C -17.753906 100.953125 -17.640625 101.136719 -17.453125 101.277344 C -17.261719 101.414062 -17.054688 101.464844 -16.820312 101.429688 C -16.589844 101.394531 -16.402344 101.285156 -16.265625 101.09375 C -11.210938 95.222656 -5.945312 89.847656 0.347656 85.285156 C 6.085938 81.125 12.292969 77.625 18.726562 74.613281 C 19.757812 74.132812 20.796875 73.660156 21.839844 73.199219 C 34.261719 67.699219 47.335938 63.691406 60.257812 59.375 C 64.207031 58.054688 68.144531 56.695312 72.058594 55.269531 C 85.835938 50.234375 99.246094 44.492188 112.28125 38.191406 C 126.277344 31.414062 140.054688 23.90625 151.816406 13.390625 C 152.222656 13.027344 152.625 12.660156 153.027344 12.296875 C 165.242188 1.015625 174.578125 -13.492188 180.074219 -28.855469 Z M 180.074219 -28.855469 " fill-opacity="1" fill-rule="nonzero"/></g><g clip-path="url(#783ff4d87a)"><path fill="#2bb1ae" d="M 187.546875 -26.734375 C 187.585938 -26.832031 187.585938 -26.929688 187.546875 -27.027344 C 187.507812 -27.121094 187.4375 -27.191406 187.339844 -27.230469 C 187.242188 -27.269531 187.148438 -27.269531 187.050781 -27.230469 C 186.953125 -27.191406 186.882812 -27.121094 186.84375 -27.027344 C 183.527344 -19.582031 179.53125 -12.523438 174.851562 -5.851562 C 170.171875 0.824219 164.894531 6.988281 159.027344 12.644531 C 147.914062 23.339844 134.96875 31.367188 121.503906 38.445312 C 119.511719 39.492188 117.507812 40.519531 115.5 41.53125 C 103.675781 47.523438 91.574219 52.90625 79.203125 57.671875 C 73.488281 59.863281 67.699219 61.863281 61.90625 63.78125 C 50.429688 67.566406 38.832031 71.109375 27.625 75.582031 C 25.328125 76.492188 23.046875 77.453125 20.78125 78.46875 C 14.445312 81.234375 8.371094 84.488281 2.5625 88.234375 C -5.105469 93.265625 -12.28125 99.304688 -17.175781 106.890625 C -17.308594 107.082031 -17.359375 107.292969 -17.324219 107.527344 C -17.289062 107.757812 -17.179688 107.945312 -16.992188 108.085938 C -16.808594 108.230469 -16.597656 108.289062 -16.363281 108.261719 C -16.132812 108.234375 -15.941406 108.128906 -15.792969 107.949219 C -10.433594 101.929688 -4.835938 96.433594 1.796875 91.804688 C 7.804688 87.582031 14.265625 84.082031 20.953125 81.050781 C 22.027344 80.5625 23.105469 80.089844 24.1875 79.625 C 37.09375 74.09375 50.640625 70.074219 64 65.613281 C 68.082031 64.246094 72.152344 62.839844 76.195312 61.347656 C 90.332031 56.09375 104.117188 50.039062 117.550781 43.179688 C 131.871094 35.871094 145.867188 27.738281 157.90625 16.742188 C 158.320312 16.363281 158.734375 15.980469 159.144531 15.597656 C 171.675781 3.808594 181.445312 -11.015625 187.546875 -26.734375 Z M 187.546875 -26.734375 " fill-opacity="1" fill-rule="nonzero"/></g><g clip-path="url(#939a672343)"><path fill="#2bb1ae" d="M 195.023438 -24.617188 C 195.054688 -24.714844 195.054688 -24.8125 195.011719 -24.90625 C 194.96875 -25 194.902344 -25.066406 194.808594 -25.109375 C 194.714844 -25.148438 194.617188 -25.152344 194.519531 -25.117188 C 194.425781 -25.082031 194.351562 -25.019531 194.304688 -24.925781 C 190.671875 -17.332031 186.410156 -10.113281 181.507812 -3.265625 C 176.609375 3.582031 171.152344 9.949219 165.132812 15.839844 C 153.734375 26.957031 140.578125 35.574219 126.792969 43.167969 C 124.75 44.289062 122.703125 45.390625 120.648438 46.476562 C 108.542969 52.894531 96.113281 58.605469 83.351562 63.601562 C 77.457031 65.890625 71.492188 67.976562 65.492188 69.9375 C 53.628906 73.835938 41.621094 77.414062 29.996094 81.921875 C 27.617188 82.847656 25.253906 83.824219 22.90625 84.847656 C 16.46875 87.625 10.035156 90.867188 3.964844 94.722656 C -4.027344 99.8125 -11.53125 105.941406 -16.722656 113.695312 C -16.875 113.890625 -16.9375 114.109375 -16.910156 114.355469 C -16.882812 114.601562 -16.769531 114.800781 -16.574219 114.953125 C -16.382812 115.105469 -16.164062 115.167969 -15.917969 115.140625 C -15.671875 115.113281 -15.472656 115 -15.316406 114.808594 C -9.652344 108.625 -3.695312 103.015625 3.25 98.300781 C 9.511719 94.058594 16.238281 90.515625 23.179688 87.46875 C 24.296875 86.976562 25.414062 86.5 26.539062 86.035156 C 39.933594 80.476562 53.953125 76.417969 67.75 71.835938 C 71.96875 70.433594 76.167969 68.972656 80.347656 67.414062 C 94.925781 61.925781 109.082031 55.507812 122.8125 48.15625 C 137.460938 40.339844 151.683594 31.558594 164 20.085938 C 164.425781 19.691406 164.847656 19.292969 165.269531 18.890625 C 178.101562 6.597656 188.289062 -8.539062 195.023438 -24.617188 Z M 195.023438 -24.617188 " fill-opacity="1" fill-rule="nonzero"/></g><g clip-path="url(#b99da92f67)"><path fill="#2bb1ae" d="M 202.5 -22.5 C 202.542969 -22.601562 202.546875 -22.703125 202.507812 -22.804688 C 202.46875 -22.910156 202.402344 -22.984375 202.300781 -23.03125 C 202.199219 -23.074219 202.097656 -23.078125 201.996094 -23.039062 C 201.890625 -23 201.816406 -22.933594 201.769531 -22.832031 C 193.832031 -7.25 183.660156 6.703125 171.246094 19.03125 C 159.5625 30.574219 146.191406 39.78125 132.109375 47.886719 C 130.027344 49.085938 127.933594 50.261719 125.828125 51.417969 C 113.445312 58.265625 100.679688 64.300781 87.53125 69.527344 C 81.457031 71.917969 75.300781 74.066406 69.109375 76.09375 C 56.855469 80.101562 44.441406 83.714844 32.40625 88.261719 C 29.9375 89.195312 27.484375 90.171875 25.046875 91.195312 C 18.355469 94.003906 11.671875 97.273438 5.375 101.175781 C -2.921875 106.324219 -10.765625 112.527344 -16.257812 120.464844 C -16.402344 120.664062 -16.460938 120.882812 -16.429688 121.125 C -16.398438 121.367188 -16.289062 121.566406 -16.097656 121.722656 C -15.910156 121.878906 -15.691406 121.945312 -15.449219 121.929688 C -15.203125 121.910156 -15 121.8125 -14.832031 121.632812 C -8.863281 115.3125 -2.582031 109.59375 4.707031 104.792969 C 11.234375 100.507812 18.222656 96.945312 25.417969 93.875 C 26.574219 93.382812 27.734375 92.902344 28.898438 92.433594 C 42.78125 86.84375 57.269531 82.761719 71.507812 78.046875 C 75.863281 76.605469 80.195312 75.09375 84.488281 73.46875 C 99.515625 67.753906 114.046875 60.976562 128.082031 53.136719 C 143.058594 44.800781 157.5 35.378906 170.09375 23.429688 C 170.527344 23.015625 170.960938 22.601562 171.390625 22.183594 C 177.933594 15.777344 183.820312 8.816406 189.050781 1.304688 C 194.28125 -6.207031 198.765625 -14.144531 202.5 -22.5 Z M 202.5 -22.5 " fill-opacity="1" fill-rule="nonzero"/></g><g clip-path="url(#d3120c7772)"><path fill="#2bb1ae" d="M 209.976562 -20.382812 C 210.203125 -20.859375 209.476562 -21.191406 209.234375 -20.734375 C 200.808594 -5.191406 190.09375 9.476562 177.355469 22.222656 C 165.386719 34.195312 151.804688 43.984375 137.417969 52.609375 C 135.289062 53.886719 133.152344 55.136719 131 56.363281 C 118.34375 63.640625 105.242188 70.007812 91.703125 75.46875 C 85.449219 77.964844 79.105469 80.183594 72.710938 82.269531 C 60.070312 86.390625 47.242188 90.039062 34.789062 94.625 C 32.234375 95.566406 29.695312 96.550781 27.171875 97.582031 C 20.226562 100.421875 13.308594 103.722656 6.777344 107.667969 C -1.832031 112.867188 -10.015625 119.160156 -15.804688 127.277344 C -15.96875 127.476562 -16.039062 127.703125 -16.015625 127.960938 C -15.992188 128.21875 -15.878906 128.433594 -15.683594 128.597656 C -15.484375 128.765625 -15.257812 128.839844 -15 128.820312 C -14.738281 128.796875 -14.527344 128.691406 -14.355469 128.496094 C -8.078125 122.015625 -1.464844 116.164062 6.164062 111.304688 C 12.953125 106.976562 20.195312 103.390625 27.652344 100.304688 C 28.847656 99.808594 30.046875 99.324219 31.253906 98.851562 C 45.621094 93.230469 60.578125 89.125 75.261719 84.277344 C 79.75 82.792969 84.210938 81.234375 88.636719 79.542969 C 104.113281 73.59375 119.023438 66.449219 133.359375 58.117188 C 148.664062 49.257812 163.328125 39.203125 176.199219 26.773438 C 176.640625 26.34375 177.085938 25.910156 177.523438 25.476562 C 184.21875 18.824219 190.289062 11.652344 195.738281 3.949219 C 201.1875 -3.75 205.933594 -11.859375 209.976562 -20.382812 Z M 209.976562 -20.382812 " fill-opacity="1" fill-rule="nonzero"/></g><g clip-path="url(#e15c95e62c)"><path fill="#2bb1ae" d="M 217.449219 -18.265625 C 217.695312 -18.75 216.953125 -19.085938 216.695312 -18.636719 C 207.636719 -2.804688 196.507812 12.207031 183.464844 25.402344 C 171.207031 37.800781 157.414062 48.183594 142.722656 57.316406 C 140.550781 58.664062 138.363281 59.988281 136.164062 61.289062 C 123.292969 68.90625 109.871094 75.726562 95.867188 81.386719 C 89.433594 83.988281 82.898438 86.28125 76.3125 88.417969 C 63.285156 92.648438 50.054688 96.335938 37.179688 100.953125 C 34.535156 101.902344 31.910156 102.898438 29.300781 103.9375 C 22.101562 106.808594 14.949219 110.140625 8.179688 114.132812 C -0.738281 119.394531 -9.257812 125.765625 -15.351562 134.050781 C -15.527344 134.253906 -15.605469 134.492188 -15.585938 134.757812 C -15.566406 135.027344 -15.453125 135.246094 -15.25 135.421875 C -15.046875 135.597656 -14.8125 135.675781 -14.546875 135.65625 C -14.277344 135.636719 -14.054688 135.527344 -13.878906 135.324219 C -7.292969 128.710938 -0.34375 122.738281 7.613281 117.8125 C 14.667969 113.4375 22.171875 109.832031 29.878906 106.730469 C 31.117188 106.234375 32.359375 105.746094 33.605469 105.273438 C 48.457031 99.621094 63.886719 95.492188 79.011719 90.496094 C 83.632812 88.972656 88.226562 87.363281 92.777344 85.609375 C 108.707031 79.425781 123.988281 71.921875 138.621094 63.097656 C 154.253906 53.71875 169.136719 43.023438 182.285156 30.125 C 182.742188 29.683594 183.195312 29.234375 183.644531 28.78125 C 197.425781 14.902344 208.695312 -0.78125 217.449219 -18.265625 Z M 217.449219 -18.265625 " fill-opacity="1" fill-rule="nonzero"/></g><g clip-path="url(#b06f6d2a47)"><path fill="#2bb1ae" d="M 224.925781 -16.148438 C 225.1875 -16.640625 224.429688 -17.003906 224.15625 -16.535156 C 214.46875 -0.417969 202.921875 14.945312 189.574219 28.589844 C 177.03125 41.414062 163.023438 52.394531 148.027344 62.03125 C 145.8125 63.457031 143.578125 64.855469 141.332031 66.230469 C 128.167969 74.265625 114.421875 81.425781 100.035156 87.308594 C 93.421875 90.015625 86.695312 92.378906 79.914062 94.574219 C 66.5 98.917969 52.859375 102.632812 39.574219 107.296875 C 36.847656 108.253906 34.136719 109.257812 31.4375 110.304688 C 23.988281 113.207031 16.601562 116.570312 9.589844 120.609375 C 0.363281 125.929688 -8.484375 132.394531 -14.886719 140.855469 C -15.054688 141.0625 -15.132812 141.300781 -15.113281 141.566406 C -15.089844 141.835938 -14.980469 142.058594 -14.78125 142.238281 C -14.578125 142.417969 -14.34375 142.5 -14.074219 142.488281 C -13.804688 142.480469 -13.578125 142.375 -13.390625 142.179688 C -6.496094 135.421875 0.78125 129.308594 9.066406 124.316406 C 16.371094 119.890625 24.140625 116.269531 32.105469 113.148438 C 33.386719 112.648438 34.667969 112.160156 35.953125 111.683594 C 51.292969 106 67.191406 101.847656 82.757812 96.726562 C 87.515625 95.164062 92.238281 93.5 96.914062 91.683594 C 113.394531 85.28125 129.054688 77.28125 143.886719 68.085938 C 159.847656 58.183594 174.953125 46.851562 188.378906 33.46875 C 188.839844 33.003906 189.304688 32.539062 189.765625 32.070312 C 203.84375 17.714844 215.5625 1.640625 224.925781 -16.148438 Z M 224.925781 -16.148438 " fill-opacity="1" fill-rule="nonzero"/></g><g clip-path="url(#1248bf5bf0)"><path fill="#2bb1ae" d="M 232.402344 -14.03125 C 232.675781 -14.53125 231.910156 -14.910156 231.617188 -14.441406 C 221.296875 1.96875 209.332031 17.679688 195.683594 31.769531 C 182.855469 45.023438 168.640625 56.574219 153.335938 66.742188 C 151.078125 68.246094 148.796875 69.722656 146.496094 71.167969 C 133.054688 79.628906 118.976562 87.132812 104.210938 93.242188 C 97.417969 96.050781 90.515625 98.488281 83.527344 100.734375 C 69.722656 105.1875 55.675781 108.945312 41.964844 113.640625 C 39.148438 114.601562 36.351562 115.613281 33.570312 116.667969 C 25.863281 119.601562 18.230469 122.992188 10.996094 127.066406 C 1.449219 132.453125 -7.730469 139.007812 -14.4375 147.632812 C -14.59375 147.847656 -14.660156 148.082031 -14.636719 148.347656 C -14.609375 148.609375 -14.5 148.828125 -14.304688 149.007812 C -14.109375 149.183594 -13.878906 149.273438 -13.613281 149.269531 C -13.347656 149.269531 -13.117188 149.179688 -12.925781 149.003906 C -5.71875 142.097656 1.894531 135.871094 10.523438 130.796875 C 18.09375 126.324219 26.132812 122.683594 34.351562 119.546875 C 35.671875 119.042969 36.992188 118.550781 38.320312 118.070312 C 54.144531 112.359375 70.519531 108.179688 86.523438 102.925781 C 91.414062 101.320312 96.269531 99.613281 101.074219 97.730469 C 118.003906 91.09375 134.039062 82.722656 149.171875 73.042969 C 165.460938 62.621094 180.785156 50.652344 194.488281 36.789062 C 194.960938 36.308594 195.433594 35.828125 195.902344 35.34375 C 210.257812 20.5 222.421875 4.042969 232.402344 -14.03125 Z M 232.402344 -14.03125 " fill-opacity="1" fill-rule="nonzero"/></g><g clip-path="url(#e7e71f78c4)"><path fill="#2bb1ae" d="M 239.878906 -11.914062 C 240.171875 -12.421875 239.390625 -12.816406 239.082031 -12.34375 C 228.125 4.347656 215.742188 20.410156 201.792969 34.960938 C 188.671875 48.621094 174.285156 60.785156 158.636719 71.464844 C 156.332031 73.039062 154.007812 74.589844 151.664062 76.113281 C 137.941406 84.996094 123.53125 92.84375 108.363281 99.183594 C 101.394531 102.097656 94.289062 104.601562 87.117188 106.910156 C 72.925781 111.46875 58.46875 115.265625 44.339844 119.996094 C 41.441406 120.964844 38.558594 121.984375 35.6875 123.046875 C 27.730469 126.011719 19.871094 129.429688 12.390625 133.5625 C 2.53125 139.003906 -6.976562 145.632812 -13.980469 154.433594 C -14.167969 154.644531 -14.253906 154.894531 -14.242188 155.179688 C -14.226562 155.460938 -14.117188 155.699219 -13.910156 155.894531 C -13.703125 156.085938 -13.457031 156.183594 -13.175781 156.175781 C -12.890625 156.171875 -12.648438 156.070312 -12.449219 155.871094 C -4.917969 148.835938 3.011719 142.464844 11.972656 137.320312 C 19.808594 132.808594 28.09375 129.144531 36.570312 125.988281 C 37.929688 125.480469 39.296875 124.984375 40.664062 124.503906 C 56.976562 118.757812 73.804688 114.558594 90.265625 109.183594 C 95.289062 107.539062 100.277344 105.777344 105.207031 103.828125 C 122.585938 96.945312 138.992188 88.195312 154.429688 78.035156 C 171.035156 67.09375 186.59375 54.476562 200.574219 40.144531 C 201.058594 39.648438 201.539062 39.152344 202.015625 38.652344 C 216.675781 23.320312 229.296875 6.46875 239.878906 -11.914062 Z M 239.878906 -11.914062 " fill-opacity="1" fill-rule="nonzero"/></g><g clip-path="url(#9d6b1036dc)"><path fill="#2bb1ae" d="M 247.355469 -9.792969 C 247.664062 -10.3125 246.871094 -10.726562 246.53125 -10.242188 C 234.949219 6.738281 222.15625 23.136719 207.890625 38.148438 C 194.5 52.28125 179.847656 64.957031 163.933594 76.179688 C 161.585938 77.832031 159.210938 79.453125 156.8125 81.042969 C 142.828125 90.34375 128.09375 98.527344 112.535156 105.09375 C 105.386719 108.105469 98.089844 110.691406 90.722656 113.054688 C 76.144531 117.726562 61.277344 121.558594 46.730469 126.324219 C 43.746094 127.308594 40.777344 128.335938 37.824219 129.402344 C 29.605469 132.398438 21.519531 135.847656 13.796875 140.027344 C 3.640625 145.523438 -6.222656 152.234375 -13.523438 161.210938 C -13.707031 161.429688 -13.792969 161.679688 -13.777344 161.964844 C -13.761719 162.246094 -13.652344 162.488281 -13.445312 162.683594 C -13.238281 162.882812 -12.996094 162.980469 -12.710938 162.984375 C -12.425781 162.988281 -12.175781 162.890625 -11.96875 162.699219 C -4.132812 155.515625 4.136719 149.019531 13.429688 143.820312 C 21.527344 139.265625 30.074219 135.578125 38.804688 132.402344 C 40.207031 131.894531 41.609375 131.398438 43.019531 130.910156 C 59.816406 125.136719 77.128906 120.910156 94.015625 115.390625 C 99.175781 113.703125 104.296875 111.894531 109.355469 109.882812 C 127.183594 102.789062 143.964844 93.664062 159.703125 83.023438 C 176.746094 71.492188 192.402344 58.316406 206.667969 43.488281 C 207.160156 42.976562 207.652344 42.460938 208.140625 41.945312 C 223.105469 26.132812 236.179688 8.886719 247.355469 -9.792969 Z M 247.355469 -9.792969 " fill-opacity="1" fill-rule="nonzero"/></g><g clip-path="url(#bd52d13350)"><path fill="#2bb1ae" d="M 254.84375 -7.675781 C 255.167969 -8.203125 254.363281 -8.632812 254.019531 -8.144531 C 241.804688 9.121094 228.585938 25.878906 214.035156 41.332031 C 200.339844 55.863281 185.492188 69.179688 169.273438 80.890625 C 166.863281 82.617188 164.4375 84.3125 162 85.980469 C 147.71875 95.703125 132.648438 104.242188 116.703125 111.027344 C 109.371094 114.148438 101.886719 116.800781 94.324219 119.21875 C 79.355469 124 64.082031 127.871094 49.121094 132.671875 C 46.050781 133.65625 42.992188 134.6875 39.949219 135.769531 C 31.484375 138.796875 23.15625 142.277344 15.199219 146.5 C 4.734375 152.054688 -5.46875 158.847656 -13.070312 168 C -13.171875 168.105469 -13.25 168.226562 -13.304688 168.363281 C -13.359375 168.496094 -13.382812 168.636719 -13.382812 168.785156 C -13.382812 168.929688 -13.351562 169.070312 -13.292969 169.203125 C -13.238281 169.339844 -13.15625 169.457031 -13.050781 169.558594 C -12.945312 169.660156 -12.828125 169.738281 -12.691406 169.792969 C -12.554688 169.847656 -12.414062 169.875 -12.269531 169.875 C -12.121094 169.871094 -11.980469 169.84375 -11.847656 169.785156 C -11.710938 169.730469 -11.59375 169.648438 -11.492188 169.542969 C -3.347656 162.210938 5.257812 155.589844 14.882812 150.3125 C 23.242188 145.714844 32.046875 142.003906 41.035156 138.820312 C 42.476562 138.308594 43.921875 137.808594 45.375 137.320312 C 62.652344 131.515625 80.429688 127.265625 97.769531 121.613281 C 103.0625 119.882812 108.3125 118.023438 113.496094 115.949219 C 131.777344 108.628906 148.933594 99.128906 164.96875 88.003906 C 182.308594 75.914062 198.238281 62.191406 212.761719 46.839844 C 213.261719 46.3125 213.765625 45.78125 214.265625 45.25 C 229.542969 28.949219 243.070312 11.304688 254.84375 -7.675781 Z M 254.84375 -7.675781 " fill-opacity="1" fill-rule="nonzero"/></g><g clip-path="url(#72ce3afb60)"><path fill="#2bb1ae" d="M 261.46875 -6.046875 C 236.542969 28.011719 208.652344 60.382812 174.554688 85.609375 C 157.847656 97.976562 139.996094 108.746094 120.875 116.957031 C 98.503906 126.5625 74.667969 131.734375 51.515625 139.015625 C 39.554688 142.777344 27.742188 147.175781 16.609375 152.96875 C 5.832031 158.585938 -4.703125 165.457031 -12.601562 174.785156 C -13.539062 175.882812 -12.105469 177.359375 -11.003906 176.382812 C -2.554688 168.90625 6.390625 162.15625 16.347656 156.8125 C 26.351562 151.429688 36.953125 147.257812 47.738281 143.71875 C 70.929688 136.101562 94.960938 131.132812 117.648438 122 C 156.539062 106.324219 190.304688 80.59375 218.863281 50.171875 C 235.058594 32.925781 249.542969 14.347656 262.3125 -5.566406 C 262.652344 -6.113281 261.835938 -6.546875 261.476562 -6.054688 Z M 261.46875 -6.046875 " fill-opacity="1" fill-rule="nonzero"/></g></g></g></g><g mask="url(#c7de661037)"><g transform="matrix(1, 0, 0, 1, 1002, 312)"><g clip-path="url(#77fdac5c51)"><g clip-path="url(#065e0b78eb)"><path fill="#2bb1ae" d="M 177.835938 1.304688 C 174.84375 15.472656 167.238281 28.070312 156.308594 37.539062 C 144.519531 47.753906 129.445312 52.71875 114.910156 57.628906 C 98.808594 63.0625 82.6875 68.4375 66.605469 73.925781 C 54.550781 78.042969 42.503906 82.472656 31.3125 88.625 C 19.460938 95.132812 6.804688 104.417969 0.808594 116.921875 C 0.714844 117.109375 0.699219 117.300781 0.757812 117.503906 C 0.816406 117.703125 0.9375 117.855469 1.117188 117.960938 C 1.300781 118.066406 1.492188 118.09375 1.695312 118.050781 C 1.898438 118.003906 2.058594 117.894531 2.175781 117.722656 C 6.054688 112.140625 9.921875 106.882812 15 102.3125 C 19.820312 97.976562 25.203125 94.304688 30.835938 91.109375 C 42.523438 84.472656 55.222656 79.84375 67.914062 75.527344 C 84.074219 70.023438 100.289062 64.609375 116.476562 59.148438 C 130.441406 54.433594 144.785156 49.539062 156.332031 40.054688 C 168.03125 30.449219 175.84375 16.3125 178.519531 1.496094 C 178.597656 1.050781 177.917969 0.859375 177.839844 1.304688 Z M 177.835938 1.304688 " fill-opacity="1" fill-rule="nonzero"/></g><g clip-path="url(#6ad8677220)"><path fill="#2bb1ae" d="M 186.6875 3.808594 C 186.785156 3.359375 186.105469 3.144531 185.992188 3.601562 C 182.308594 18.082031 174.25 31.0625 162.988281 41.023438 C 152.410156 50.382812 139.417969 55.945312 126.363281 60.867188 C 124.425781 61.597656 122.492188 62.316406 120.558594 63.027344 C 109.21875 67.214844 97.820312 71.289062 86.355469 75.25 C 81.09375 77.074219 75.820312 78.875 70.542969 80.660156 C 60.117188 84.195312 49.675781 87.867188 39.714844 92.554688 C 37.664062 93.511719 35.640625 94.519531 33.640625 95.582031 C 28.039062 98.492188 22.722656 101.855469 17.699219 105.675781 C 11 110.855469 5.046875 117.015625 1.304688 124.34375 C 1.191406 124.535156 1.164062 124.738281 1.214844 124.957031 C 1.269531 125.171875 1.390625 125.335938 1.582031 125.453125 C 1.769531 125.570312 1.972656 125.605469 2.191406 125.558594 C 2.40625 125.507812 2.578125 125.390625 2.699219 125.207031 C 6.90625 119.460938 11.148438 114.070312 16.585938 109.421875 C 21.691406 105.035156 27.359375 101.347656 33.273438 98.128906 C 34.222656 97.613281 35.175781 97.105469 36.140625 96.613281 C 47.59375 90.730469 59.839844 86.457031 72.015625 82.324219 C 75.742188 81.0625 79.46875 79.789062 83.195312 78.507812 C 96.285156 74 109.296875 69.359375 122.234375 64.585938 C 136.09375 59.460938 150.191406 54.035156 161.835938 44.632812 C 162.234375 44.308594 162.632812 43.980469 163.03125 43.648438 C 175.070312 33.5 183.332031 19.015625 186.6875 3.808594 Z M 186.6875 3.808594 " fill-opacity="1" fill-rule="nonzero"/></g><g clip-path="url(#67e0ffe5cb)"><path fill="#2bb1ae" d="M 194.855469 6.125 C 194.96875 5.667969 194.277344 5.433594 194.144531 5.894531 C 193.039062 9.597656 191.683594 13.203125 190.078125 16.722656 C 188.476562 20.238281 186.640625 23.625 184.570312 26.890625 C 182.5 30.152344 180.21875 33.261719 177.722656 36.210938 C 175.226562 39.160156 172.539062 41.925781 169.660156 44.507812 C 158.769531 54.332031 145.550781 60.539062 132.160156 66.023438 C 130.164062 66.835938 128.179688 67.632812 126.203125 68.414062 C 114.558594 73.066406 102.796875 77.5 90.910156 81.726562 C 85.449219 83.664062 79.964844 85.539062 74.476562 87.386719 C 63.628906 91.046875 52.738281 94.757812 42.320312 99.484375 C 40.179688 100.457031 38.0625 101.472656 35.96875 102.535156 C 30.101562 105.464844 24.523438 108.871094 19.234375 112.746094 C 12.195312 118 5.875 124.253906 1.804688 131.765625 C 1.695312 131.960938 1.667969 132.164062 1.722656 132.378906 C 1.777344 132.597656 1.894531 132.765625 2.082031 132.886719 C 2.269531 133.007812 2.472656 133.046875 2.691406 133.007812 C 2.914062 132.96875 3.089844 132.859375 3.222656 132.683594 C 7.75 126.765625 12.375 121.253906 18.1875 116.53125 C 23.574219 112.101562 29.53125 108.382812 35.722656 105.148438 C 36.722656 104.625 37.71875 104.121094 38.714844 103.625 C 50.6875 97.710938 63.445312 93.410156 76.128906 89.136719 C 80.007812 87.828125 83.875 86.5 87.738281 85.152344 C 101.320312 80.394531 114.746094 75.359375 128.007812 70.042969 C 142.226562 64.359375 156.5625 58.226562 168.507812 48.300781 C 168.921875 47.957031 169.328125 47.613281 169.734375 47.261719 C 182.082031 36.566406 190.859375 21.730469 194.855469 6.125 Z M 194.855469 6.125 " fill-opacity="1" fill-rule="nonzero"/></g><g clip-path="url(#c54e888e7f)"><path fill="#2bb1ae" d="M 203.023438 8.453125 C 203.164062 7.988281 202.449219 7.738281 202.300781 8.203125 C 199.722656 15.824219 196.234375 23 191.835938 29.738281 C 187.441406 36.476562 182.273438 42.558594 176.335938 47.992188 C 165.132812 58.28125 151.683594 65.132812 137.957031 71.179688 C 135.921875 72.074219 133.886719 72.953125 131.847656 73.824219 C 119.902344 78.925781 107.769531 83.71875 95.457031 88.210938 C 89.796875 90.261719 84.109375 92.214844 78.394531 94.125 C 67.125 97.902344 55.785156 101.65625 44.910156 106.425781 C 42.691406 107.402344 40.484375 108.429688 38.289062 109.5 C 32.160156 112.453125 26.320312 115.898438 20.765625 119.828125 C 13.390625 125.136719 6.679688 131.472656 2.304688 139.1875 C 2.167969 139.386719 2.125 139.605469 2.167969 139.839844 C 2.214844 140.074219 2.335938 140.261719 2.535156 140.394531 C 2.734375 140.53125 2.953125 140.574219 3.1875 140.53125 C 3.425781 140.484375 3.609375 140.363281 3.746094 140.164062 C 8.605469 134.078125 13.621094 128.457031 19.765625 123.632812 C 25.453125 119.171875 31.683594 115.410156 38.152344 112.15625 C 39.191406 111.636719 40.238281 111.125 41.289062 110.625 C 53.800781 104.679688 67.058594 100.351562 80.214844 95.929688 C 84.238281 94.574219 88.25 93.191406 92.253906 91.777344 C 106.328125 86.765625 120.164062 81.335938 133.765625 75.476562 C 148.34375 69.210938 162.921875 62.394531 175.171875 51.945312 C 175.59375 51.585938 176.011719 51.222656 176.425781 50.855469 C 189.105469 39.609375 198.363281 24.441406 203.023438 8.453125 Z M 203.023438 8.453125 " fill-opacity="1" fill-rule="nonzero"/></g><g clip-path="url(#d1b3ff5fbf)"><path fill="#2bb1ae" d="M 211.191406 10.753906 C 211.222656 10.652344 211.214844 10.558594 211.167969 10.464844 C 211.125 10.371094 211.050781 10.304688 210.953125 10.269531 C 210.855469 10.230469 210.757812 10.234375 210.660156 10.273438 C 210.566406 10.316406 210.496094 10.382812 210.453125 10.480469 C 207.523438 18.277344 203.742188 25.640625 199.109375 32.5625 C 194.472656 39.488281 189.109375 45.789062 183.011719 51.472656 C 171.496094 62.238281 157.8125 69.714844 143.757812 76.332031 C 141.671875 77.3125 139.585938 78.273438 137.5 79.21875 C 125.246094 84.78125 112.753906 89.984375 100.019531 94.6875 C 94.164062 96.855469 88.269531 98.875 82.359375 100.859375 C 70.664062 104.746094 58.882812 108.546875 47.550781 113.355469 C 45.226562 114.351562 42.917969 115.386719 40.636719 116.460938 C 34.238281 119.4375 28.132812 122.917969 22.316406 126.90625 C 14.601562 132.289062 7.515625 138.703125 2.816406 146.605469 C 2.671875 146.808594 2.621094 147.03125 2.664062 147.277344 C 2.707031 147.519531 2.828125 147.714844 3.03125 147.859375 C 3.230469 148 3.457031 148.050781 3.699219 148.011719 C 3.945312 147.96875 4.136719 147.847656 4.28125 147.644531 C 9.472656 141.394531 14.851562 135.644531 21.371094 130.738281 C 27.359375 126.234375 33.855469 122.445312 40.605469 119.171875 C 41.6875 118.644531 42.777344 118.128906 43.875 117.628906 C 56.921875 111.648438 70.695312 107.296875 84.328125 102.726562 C 88.496094 101.332031 92.652344 99.890625 96.796875 98.402344 C 111.363281 93.144531 125.609375 87.28125 139.523438 80.917969 C 154.460938 74.085938 169.277344 66.5625 181.832031 55.601562 C 182.261719 55.222656 182.691406 54.839844 183.117188 54.453125 C 196.132812 42.664062 205.863281 27.148438 211.191406 10.753906 Z M 211.191406 10.753906 " fill-opacity="1" fill-rule="nonzero"/></g><g clip-path="url(#31bba1c628)"><path fill="#2bb1ae" d="M 219.367188 13.070312 C 219.40625 12.964844 219.40625 12.863281 219.359375 12.761719 C 219.316406 12.65625 219.242188 12.585938 219.136719 12.542969 C 219.035156 12.503906 218.929688 12.503906 218.828125 12.550781 C 218.726562 12.59375 218.652344 12.667969 218.613281 12.769531 C 215.335938 20.742188 211.257812 28.28125 206.382812 35.390625 C 201.507812 42.5 195.945312 49.019531 189.691406 54.953125 C 177.859375 66.179688 163.949219 74.308594 149.554688 81.484375 C 147.421875 82.546875 145.285156 83.589844 143.144531 84.617188 C 130.574219 90.640625 117.734375 96.214844 104.570312 101.167969 C 98.523438 103.449219 92.417969 105.558594 86.289062 107.589844 C 74.167969 111.609375 61.9375 115.441406 50.148438 120.289062 C 47.730469 121.285156 45.328125 122.328125 42.953125 123.417969 C 36.292969 126.417969 29.921875 129.9375 23.839844 133.976562 C 15.785156 139.410156 8.324219 145.941406 3.304688 154.015625 C 3.152344 154.222656 3.09375 154.453125 3.132812 154.703125 C 3.171875 154.957031 3.296875 155.160156 3.503906 155.3125 C 3.707031 155.464844 3.9375 155.519531 4.191406 155.480469 C 4.445312 155.441406 4.648438 155.320312 4.800781 155.113281 C 10.320312 148.695312 16.078125 142.820312 22.957031 137.832031 C 29.226562 133.285156 36.011719 129.457031 43.039062 126.167969 C 44.167969 125.640625 45.300781 125.125 46.441406 124.621094 C 60.019531 118.609375 74.304688 114.226562 88.425781 109.511719 C 92.742188 108.070312 97.042969 106.578125 101.320312 105.023438 C 116.378906 99.519531 131.035156 93.242188 145.28125 86.351562 C 160.574219 78.949219 175.632812 70.742188 188.488281 59.246094 C 188.929688 58.847656 189.371094 58.449219 189.808594 58.050781 C 203.160156 45.71875 213.359375 29.859375 219.367188 13.070312 Z M 219.367188 13.070312 " fill-opacity="1" fill-rule="nonzero"/></g><g clip-path="url(#25746796a6)"><path fill="#2bb1ae" d="M 227.535156 15.382812 C 227.578125 15.277344 227.578125 15.171875 227.53125 15.066406 C 227.488281 14.960938 227.414062 14.886719 227.308594 14.84375 C 227.203125 14.800781 227.097656 14.800781 226.988281 14.84375 C 226.882812 14.886719 226.808594 14.960938 226.765625 15.066406 C 223.140625 23.203125 218.769531 30.917969 213.65625 38.214844 C 208.542969 45.507812 202.78125 52.25 196.363281 58.433594 C 184.222656 70.121094 170.074219 78.898438 155.359375 86.632812 C 153.183594 87.777344 150.992188 88.902344 148.796875 90.003906 C 135.875 96.558594 122.652344 102.4375 109.128906 107.648438 C 102.882812 110.042969 96.558594 112.230469 90.230469 114.324219 C 77.6875 118.464844 65.011719 122.335938 52.765625 127.222656 C 50.253906 128.222656 47.757812 129.273438 45.28125 130.378906 C 38.359375 133.402344 31.726562 136.960938 25.375 141.054688 C 16.996094 146.554688 9.15625 153.15625 3.804688 161.449219 C 3.65625 161.660156 3.601562 161.890625 3.640625 162.144531 C 3.679688 162.398438 3.800781 162.601562 4.003906 162.757812 C 4.207031 162.914062 4.4375 162.976562 4.691406 162.945312 C 4.945312 162.917969 5.15625 162.804688 5.316406 162.605469 C 11.171875 156.023438 17.289062 150.019531 24.539062 144.960938 C 31.105469 140.34375 38.164062 136.515625 45.472656 133.203125 C 46.644531 132.671875 47.824219 132.152344 49.007812 131.644531 C 63.113281 125.601562 77.917969 121.203125 92.515625 116.328125 C 96.980469 114.835938 101.425781 113.300781 105.84375 111.667969 C 121.292969 105.925781 136.359375 99.304688 151.039062 91.808594 C 166.6875 83.820312 181.984375 74.929688 195.140625 62.910156 C 195.59375 62.496094 196.042969 62.078125 196.492188 61.65625 C 210.1875 48.773438 220.863281 32.570312 227.535156 15.382812 Z M 227.535156 15.382812 " fill-opacity="1" fill-rule="nonzero"/></g><g clip-path="url(#6d05479a23)"><path fill="#2bb1ae" d="M 235.703125 17.699219 C 235.738281 17.59375 235.734375 17.488281 235.691406 17.386719 C 235.644531 17.28125 235.570312 17.207031 235.46875 17.164062 C 235.363281 17.121094 235.261719 17.117188 235.15625 17.152344 C 235.046875 17.191406 234.96875 17.261719 234.917969 17.359375 C 230.949219 25.660156 226.289062 33.554688 220.933594 41.039062 C 215.582031 48.523438 209.617188 55.484375 203.039062 61.921875 C 190.582031 74.078125 176.203125 83.496094 161.136719 91.792969 C 158.910156 93.019531 156.671875 94.226562 154.421875 95.410156 C 141.195312 102.429688 127.609375 108.667969 113.664062 114.128906 C 107.222656 116.632812 100.703125 118.914062 94.148438 121.054688 C 81.179688 125.316406 68.058594 129.226562 55.359375 134.15625 C 52.757812 135.167969 50.175781 136.234375 47.609375 137.355469 C 40.570312 140.390625 33.542969 143.933594 26.90625 148.148438 C 18.175781 153.710938 9.972656 160.410156 4.300781 168.886719 C 4.132812 169.101562 4.0625 169.339844 4.09375 169.609375 C 4.125 169.875 4.246094 170.09375 4.460938 170.261719 C 4.671875 170.429688 4.910156 170.5 5.179688 170.46875 C 5.449219 170.4375 5.667969 170.3125 5.835938 170.101562 C 12.027344 163.347656 18.535156 157.210938 26.125 152.058594 C 32.96875 147.421875 40.320312 143.550781 47.90625 140.21875 C 49.125 139.683594 50.347656 139.160156 51.578125 138.652344 C 66.214844 132.574219 81.535156 128.140625 96.613281 123.128906 C 101.226562 121.597656 105.8125 120 110.382812 118.296875 C 126.3125 112.300781 141.78125 105.285156 156.789062 97.25 C 172.796875 88.703125 188.339844 79.105469 201.800781 66.5625 C 202.265625 66.132812 202.726562 65.695312 203.1875 65.257812 C 217.210938 51.820312 228.34375 35.273438 235.703125 17.699219 Z M 235.703125 17.699219 " fill-opacity="1" fill-rule="nonzero"/></g><g clip-path="url(#98e3ce8c22)"><path fill="#2bb1ae" d="M 243.875 20.011719 C 243.921875 19.902344 243.925781 19.792969 243.882812 19.679688 C 243.84375 19.566406 243.765625 19.484375 243.65625 19.433594 C 243.546875 19.386719 243.433594 19.382812 243.320312 19.421875 C 243.207031 19.464844 243.128906 19.542969 243.078125 19.652344 C 234.402344 36.683594 223.285156 51.9375 209.71875 65.410156 C 196.953125 78.03125 182.339844 88.089844 166.949219 96.953125 C 164.671875 98.261719 162.382812 99.546875 160.082031 100.8125 C 146.554688 108.296875 132.601562 114.894531 118.230469 120.605469 C 111.59375 123.222656 104.867188 125.570312 98.097656 127.785156 C 84.707031 132.164062 71.140625 136.117188 57.992188 141.085938 C 55.292969 142.105469 52.609375 143.175781 49.945312 144.292969 C 42.632812 147.363281 35.332031 150.9375 28.449219 155.203125 C 19.382812 160.828125 10.808594 167.609375 4.804688 176.289062 C 4.648438 176.503906 4.585938 176.742188 4.621094 177.007812 C 4.652344 177.273438 4.773438 177.492188 4.980469 177.660156 C 5.1875 177.832031 5.425781 177.90625 5.691406 177.886719 C 5.960938 177.867188 6.183594 177.757812 6.363281 177.5625 C 12.890625 170.65625 19.753906 164.402344 27.71875 159.15625 C 34.851562 154.46875 42.488281 150.574219 50.351562 147.222656 C 51.617188 146.683594 52.882812 146.160156 54.15625 145.648438 C 69.324219 139.539062 85.160156 135.074219 100.722656 129.917969 C 105.480469 128.34375 110.214844 126.691406 114.90625 124.914062 C 131.328125 118.667969 147.210938 111.261719 162.546875 102.691406 C 178.914062 93.578125 194.699219 83.28125 208.460938 70.21875 C 208.933594 69.769531 209.40625 69.3125 209.875 68.859375 C 217.027344 61.855469 223.460938 54.246094 229.175781 46.035156 C 234.890625 37.820312 239.792969 29.148438 243.875 20.011719 Z M 243.875 20.011719 " fill-opacity="1" fill-rule="nonzero"/></g><g clip-path="url(#106f15578b)"><path fill="#2bb1ae" d="M 252.042969 22.328125 C 252.292969 21.808594 251.496094 21.445312 251.234375 21.945312 C 242.027344 38.9375 230.316406 54.964844 216.398438 68.898438 C 203.316406 81.988281 188.472656 92.6875 172.75 102.113281 C 170.425781 103.511719 168.085938 104.878906 165.734375 106.21875 C 151.902344 114.171875 137.589844 121.132812 122.789062 127.101562 C 115.957031 129.832031 109.023438 132.257812 102.035156 134.535156 C 88.222656 139.039062 74.203125 143.03125 60.59375 148.039062 C 57.800781 149.070312 55.027344 150.144531 52.269531 151.273438 C 44.679688 154.378906 37.117188 157.984375 29.980469 162.300781 C 20.574219 167.980469 11.628906 174.859375 5.300781 183.730469 C 5.214844 183.835938 5.152344 183.953125 5.113281 184.082031 C 5.074219 184.214844 5.058594 184.347656 5.074219 184.480469 C 5.085938 184.617188 5.121094 184.746094 5.1875 184.867188 C 5.25 184.984375 5.332031 185.089844 5.4375 185.175781 C 5.539062 185.265625 5.65625 185.328125 5.785156 185.371094 C 5.914062 185.414062 6.046875 185.429688 6.183594 185.417969 C 6.320312 185.40625 6.449219 185.371094 6.570312 185.308594 C 6.691406 185.25 6.796875 185.167969 6.886719 185.066406 C 13.746094 177.984375 20.972656 171.585938 29.308594 166.273438 C 36.730469 161.542969 44.644531 157.621094 52.792969 154.25 C 54.097656 153.707031 55.414062 153.179688 56.730469 152.664062 C 72.429688 146.519531 88.777344 142.03125 104.824219 136.730469 C 109.730469 135.109375 114.605469 133.402344 119.4375 131.554688 C 136.355469 125.050781 152.648438 117.242188 168.3125 108.136719 C 185.039062 98.449219 201.0625 87.460938 215.132812 73.875 C 215.617188 73.40625 216.097656 72.933594 216.578125 72.457031 C 223.894531 65.1875 230.53125 57.34375 236.484375 48.925781 C 242.441406 40.511719 247.625 31.644531 252.042969 22.328125 Z M 252.042969 22.328125 " fill-opacity="1" fill-rule="nonzero"/></g><g clip-path="url(#46f5c55238)"><path fill="#2bb1ae" d="M 260.210938 24.644531 C 260.480469 24.113281 259.667969 23.746094 259.386719 24.238281 C 249.488281 41.542969 237.324219 57.953125 223.070312 72.375 C 209.675781 85.929688 194.601562 97.277344 178.546875 107.257812 C 176.171875 108.734375 173.785156 110.183594 171.378906 111.605469 C 157.3125 119.929688 142.644531 127.382812 127.34375 133.570312 C 120.3125 136.414062 113.171875 138.921875 105.972656 141.257812 C 91.734375 145.878906 77.277344 149.910156 63.207031 154.960938 C 60.316406 155.996094 57.449219 157.082031 54.59375 158.21875 C 46.730469 161.359375 38.910156 165 31.511719 169.363281 C 21.765625 175.117188 12.457031 182.082031 5.800781 191.140625 C 5.707031 191.246094 5.640625 191.367188 5.59375 191.5 C 5.550781 191.632812 5.535156 191.769531 5.542969 191.910156 C 5.554688 192.050781 5.589844 192.183594 5.652344 192.308594 C 5.714844 192.433594 5.800781 192.542969 5.90625 192.636719 C 6.015625 192.726562 6.132812 192.796875 6.269531 192.839844 C 6.402344 192.886719 6.539062 192.902344 6.679688 192.894531 C 6.820312 192.882812 6.953125 192.847656 7.078125 192.785156 C 7.203125 192.71875 7.3125 192.636719 7.40625 192.53125 C 14.605469 185.300781 22.199219 178.773438 30.894531 173.390625 C 38.601562 168.605469 46.804688 164.664062 55.226562 161.273438 C 56.578125 160.730469 57.9375 160.199219 59.300781 159.679688 C 75.53125 153.5 92.394531 148.988281 108.921875 143.53125 C 113.972656 141.863281 118.992188 140.101562 123.964844 138.1875 C 141.375 131.425781 158.074219 123.222656 174.066406 113.578125 C 191.152344 103.324219 207.414062 91.636719 221.785156 77.539062 C 222.28125 77.054688 222.777344 76.5625 223.265625 76.070312 C 230.75 68.53125 237.589844 60.449219 243.785156 51.824219 C 249.984375 43.199219 255.457031 34.140625 260.210938 24.644531 Z M 260.210938 24.644531 " fill-opacity="1" fill-rule="nonzero"/></g><g clip-path="url(#e7d5d66310)"><path fill="#2bb1ae" d="M 268.382812 26.957031 C 268.667969 26.417969 267.839844 26.023438 267.542969 26.535156 C 256.953125 44.152344 244.335938 60.945312 229.75 75.859375 C 216.042969 89.878906 200.734375 101.878906 184.34375 112.414062 C 181.921875 113.972656 179.484375 115.503906 177.027344 117.003906 C 162.640625 125.789062 147.617188 133.617188 131.894531 140.046875 C 124.671875 143.003906 117.320312 145.585938 109.910156 147.984375 C 95.25 152.734375 80.339844 156.792969 65.824219 161.894531 C 62.84375 162.9375 59.878906 164.035156 56.933594 165.183594 C 48.789062 168.351562 40.714844 172.027344 33.054688 176.441406 C 22.972656 182.257812 13.300781 189.328125 6.308594 198.574219 C 6.121094 198.800781 6.039062 199.058594 6.058594 199.351562 C 6.082031 199.644531 6.203125 199.890625 6.421875 200.085938 C 6.640625 200.28125 6.898438 200.375 7.195312 200.359375 C 7.488281 200.347656 7.734375 200.238281 7.9375 200.023438 C 15.476562 192.636719 23.429688 185.953125 32.480469 180.5 C 40.464844 175.660156 48.957031 171.703125 57.664062 168.289062 C 59.058594 167.742188 60.460938 167.207031 61.867188 166.6875 C 78.628906 160.476562 96.007812 155.933594 113.015625 150.339844 C 118.214844 148.628906 123.378906 146.8125 128.484375 144.828125 C 146.496094 137.828125 163.609375 129.082031 179.820312 119.03125 C 197.261719 108.210938 213.769531 95.820312 228.441406 81.191406 C 228.949219 80.683594 229.453125 80.175781 229.957031 79.667969 C 245.34375 63.972656 258.152344 46.402344 268.382812 26.957031 Z M 268.382812 26.957031 " fill-opacity="1" fill-rule="nonzero"/></g><g clip-path="url(#6c86f3a072)"><path fill="#2bb1ae" d="M 276.550781 29.273438 C 276.851562 28.726562 276.015625 28.308594 275.695312 28.824219 C 264.417969 46.757812 251.339844 63.933594 236.425781 79.335938 C 222.40625 93.820312 206.871094 106.449219 190.144531 117.5625 C 187.675781 119.207031 185.1875 120.820312 182.671875 122.402344 C 167.980469 131.648438 152.597656 139.851562 136.460938 146.53125 C 129.035156 149.601562 121.496094 152.261719 113.855469 154.722656 C 98.773438 159.585938 83.417969 163.691406 68.433594 168.824219 C 65.359375 169.878906 62.300781 170.980469 59.261719 172.136719 C 50.839844 175.34375 42.5 179.046875 34.59375 183.5 C 24.160156 189.390625 14.125 196.554688 6.796875 205.984375 C 6.625 206.214844 6.550781 206.476562 6.582031 206.761719 C 6.609375 207.050781 6.730469 207.289062 6.941406 207.484375 C 7.15625 207.679688 7.410156 207.773438 7.699219 207.773438 C 7.988281 207.773438 8.238281 207.675781 8.449219 207.480469 C 16.324219 199.933594 24.644531 193.125 34.074219 187.582031 C 42.347656 182.691406 51.132812 178.710938 60.113281 175.28125 C 61.554688 174.730469 63.003906 174.195312 64.453125 173.671875 C 81.746094 167.425781 99.640625 162.859375 117.128906 157.117188 C 122.476562 155.359375 127.78125 153.492188 133.03125 151.433594 C 151.53125 144.183594 169.058594 135.03125 185.597656 124.449219 C 203.394531 113.058594 220.144531 99.976562 235.117188 84.820312 C 235.636719 84.296875 236.152344 83.773438 236.667969 83.242188 C 252.351562 67.015625 265.644531 49.027344 276.550781 29.273438 Z M 276.550781 29.273438 " fill-opacity="1" fill-rule="nonzero"/></g><g clip-path="url(#19090965e5)"><path fill="#2bb1ae" d="M 284.722656 31.585938 C 285.042969 31.03125 284.1875 30.597656 283.851562 31.117188 C 271.878906 49.363281 258.347656 66.917969 243.101562 82.824219 C 228.761719 97.753906 213.042969 111.054688 195.941406 122.722656 C 193.421875 124.449219 190.878906 126.144531 188.316406 127.808594 C 173.320312 137.515625 157.574219 146.097656 141 153.023438 C 133.382812 156.207031 125.617188 158.945312 117.78125 161.46875 C 102.269531 166.453125 86.472656 170.605469 71.03125 175.773438 C 67.863281 176.832031 64.710938 177.945312 61.578125 179.109375 C 52.878906 182.347656 44.292969 186.085938 36.117188 190.605469 C 25.339844 196.550781 14.949219 203.796875 7.296875 213.417969 C 7.195312 213.527344 7.125 213.65625 7.074219 213.796875 C 7.023438 213.9375 7.003906 214.082031 7.011719 214.230469 C 7.019531 214.378906 7.054688 214.523438 7.117188 214.65625 C 7.179688 214.792969 7.265625 214.910156 7.371094 215.011719 C 7.480469 215.113281 7.605469 215.191406 7.746094 215.246094 C 7.882812 215.300781 8.027344 215.324219 8.175781 215.324219 C 8.328125 215.320312 8.46875 215.289062 8.605469 215.234375 C 8.746094 215.175781 8.867188 215.09375 8.972656 214.988281 C 17.199219 207.296875 25.867188 200.332031 35.660156 194.714844 C 44.21875 189.78125 53.277344 185.773438 62.539062 182.324219 C 64.027344 181.769531 65.519531 181.226562 67.015625 180.703125 C 84.839844 174.421875 103.230469 169.832031 121.21875 163.953125 C 126.710938 162.160156 132.160156 160.230469 137.550781 158.101562 C 156.542969 150.578125 174.472656 141.015625 191.34375 129.90625 C 209.488281 117.949219 226.488281 104.15625 241.769531 88.492188 C 242.296875 87.949219 242.824219 87.40625 243.347656 86.859375 C 259.367188 70.101562 273.160156 51.675781 284.722656 31.585938 Z M 284.722656 31.585938 " fill-opacity="1" fill-rule="nonzero"/></g><g clip-path="url(#a54f583878)"><path fill="#2bb1ae" d="M 292.894531 33.902344 C 293.230469 33.335938 292.363281 32.886719 291.996094 33.410156 C 279.335938 51.972656 265.355469 69.898438 249.765625 86.308594 C 235.132812 101.757812 219.121094 115.613281 201.730469 127.878906 C 199.160156 129.6875 196.566406 131.457031 193.945312 133.195312 C 178.660156 143.363281 162.558594 152.308594 145.558594 159.484375 C 137.742188 162.773438 129.769531 165.605469 121.71875 168.183594 C 105.789062 173.292969 89.539062 177.484375 73.644531 182.691406 C 70.382812 183.769531 67.136719 184.890625 63.910156 186.058594 C 54.929688 189.328125 46.089844 193.101562 37.652344 197.667969 C 26.554688 203.675781 15.773438 211.011719 7.796875 220.824219 C 7.59375 221.0625 7.503906 221.335938 7.519531 221.648438 C 7.535156 221.957031 7.65625 222.222656 7.878906 222.4375 C 8.105469 222.652344 8.375 222.761719 8.683594 222.765625 C 8.996094 222.765625 9.265625 222.664062 9.496094 222.453125 C 18.058594 214.597656 27.09375 207.5 37.253906 201.816406 C 46.101562 196.839844 55.441406 192.804688 64.984375 189.335938 C 66.511719 188.78125 68.050781 188.234375 69.589844 187.707031 C 87.941406 181.394531 106.863281 176.773438 125.320312 170.738281 C 130.957031 168.894531 136.550781 166.917969 142.082031 164.71875 C 161.566406 156.96875 179.90625 146.992188 197.105469 135.359375 C 215.730469 122.757812 232.839844 108.351562 248.429688 92.144531 C 248.96875 91.585938 249.503906 91.023438 250.039062 90.460938 C 266.394531 73.171875 280.679688 54.320312 292.894531 33.902344 Z M 292.894531 33.902344 " fill-opacity="1" fill-rule="nonzero"/></g><g clip-path="url(#7e9111ad10)"><path fill="#2bb1ae" d="M 301.074219 36.21875 C 301.433594 35.644531 300.550781 35.171875 300.179688 35.707031 C 286.828125 54.582031 272.382812 72.894531 256.480469 89.789062 C 241.515625 105.671875 225.289062 120.230469 207.566406 133.03125 C 204.929688 134.914062 202.28125 136.769531 199.613281 138.59375 C 184.007812 149.222656 167.535156 158.550781 150.109375 165.972656 C 142.097656 169.382812 133.921875 172.28125 125.65625 174.921875 C 109.296875 180.152344 92.605469 184.378906 76.253906 189.628906 C 72.898438 190.707031 69.558594 191.835938 66.234375 193.015625 C 56.984375 196.324219 47.882812 200.128906 39.183594 204.742188 C 27.746094 210.816406 16.597656 218.242188 8.292969 228.246094 C 8.179688 228.363281 8.09375 228.492188 8.035156 228.640625 C 7.976562 228.789062 7.949219 228.945312 7.949219 229.101562 C 7.953125 229.261719 7.984375 229.417969 8.046875 229.5625 C 8.109375 229.710938 8.199219 229.839844 8.3125 229.949219 C 8.425781 230.0625 8.558594 230.148438 8.707031 230.207031 C 8.855469 230.265625 9.007812 230.296875 9.167969 230.296875 C 9.328125 230.292969 9.480469 230.261719 9.628906 230.199219 C 9.773438 230.136719 9.902344 230.046875 10.015625 229.933594 C 18.914062 221.917969 28.320312 214.683594 38.839844 208.914062 C 47.972656 203.886719 57.597656 199.832031 67.417969 196.351562 C 68.996094 195.792969 70.578125 195.246094 72.160156 194.714844 C 91.042969 188.367188 110.472656 183.722656 129.421875 177.539062 C 135.207031 175.648438 140.941406 173.617188 146.609375 171.347656 C 166.585938 163.347656 185.335938 152.960938 202.859375 140.800781 C 221.808594 127.585938 239.21875 112.589844 255.089844 95.808594 C 255.636719 95.230469 256.183594 94.652344 256.730469 94.070312 C 273.425781 76.25 288.210938 56.964844 301.074219 36.21875 Z M 301.074219 36.21875 " fill-opacity="1" fill-rule="nonzero"/></g><g clip-path="url(#549c318b7e)"><path fill="#2bb1ae" d="M 308.316406 38 C 281.078125 75.226562 250.597656 110.609375 213.335938 138.1875 C 195.078125 151.703125 175.570312 163.476562 154.671875 172.453125 C 130.222656 182.949219 104.175781 188.601562 78.875 196.5625 C 65.804688 200.675781 52.894531 205.484375 40.726562 211.816406 C 28.949219 217.953125 17.433594 225.464844 8.800781 235.664062 C 7.777344 236.859375 9.347656 238.476562 10.550781 237.410156 C 19.78125 229.234375 29.558594 221.859375 40.441406 216.015625 C 51.375 210.132812 62.960938 205.574219 74.742188 201.707031 C 100.089844 193.378906 126.351562 187.949219 151.144531 177.964844 C 193.648438 160.828125 230.546875 132.703125 261.757812 99.449219 C 279.457031 80.597656 295.285156 60.292969 309.238281 38.527344 C 309.613281 37.929688 308.71875 37.453125 308.324219 37.992188 Z M 308.316406 38 " fill-opacity="1" fill-rule="nonzero"/></g></g></g></g></svg>